<svg xmlns="http://www.w3.org/2000/svg" version="1.1" xmlns:xlink="http://www.w3.org/1999/xlink" xmlns:svgjs="http://svgjs.dev/svgjs" width="1600" height="500" preserveAspectRatio="none" viewBox="0 0 1600 500"><g mask="url(&quot;#SvgjsMask1072&quot;)" fill="none"><rect width="1600" height="500" x="0" y="0" fill="rgba(92, 184, 255, 1)"></rect><path d="M-76.3 365.36L-76.3 365.36" stroke="rgba(255, 255, 255, 0.3)" stroke-width="1.5"></path><path d="M-76.3 365.36L-66.6 490.87" stroke="rgba(255, 255, 255, 0.3)" stroke-width="1.5"></path><path d="M-76.3 365.36L57.9 372.86" stroke="rgba(255, 255, 255, 0.3)" stroke-width="1.5"></path><path d="M-76.3 365.36L219.23 380.86" stroke="rgba(255, 255, 255, 0.3)" stroke-width="1.5"></path><path d="M-76.3 365.36L54.92 669.1" stroke="rgba(255, 255, 255, 0.3)" stroke-width="1.5"></path><path d="M-76.3 365.36L223.5 520.17" stroke="rgba(255, 255, 255, 0.3)" stroke-width="1.5"></path><path d="M-66.6 490.87L-66.6 490.87" stroke="rgba(255, 255, 255, 0.3)" stroke-width="1.5"></path><path d="M-66.6 490.87L57.9 372.86" stroke="rgba(255, 255, 255, 0.3)" stroke-width="1.5"></path><path d="M-66.6 490.87L54.92 669.1" stroke="rgba(255, 255, 255, 0.3)" stroke-width="1.5"></path><path d="M-66.6 490.87L-58.87 707.96" stroke="rgba(255, 255, 255, 0.3)" stroke-width="1.5"></path><path d="M-66.6 490.87L223.5 520.17" stroke="rgba(255, 255, 255, 0.3)" stroke-width="1.5"></path><path d="M-58.87 707.96L-58.87 707.96" stroke="rgba(255, 255, 255, 0.3)" stroke-width="1.5"></path><path d="M-58.87 707.96L54.92 669.1" stroke="rgba(255, 255, 255, 0.3)" stroke-width="1.5"></path><path d="M-58.87 707.96L258.01 677.34" stroke="rgba(255, 255, 255, 0.3)" stroke-width="1.5"></path><path d="M57.9 372.86L57.9 372.86" stroke="rgba(255, 255, 255, 0.3)" stroke-width="1.5"></path><path d="M57.9 372.86L219.23 380.86" stroke="rgba(255, 255, 255, 0.3)" stroke-width="1.5"></path><path d="M54.92 669.1L54.92 669.1" stroke="rgba(255, 255, 255, 0.3)" stroke-width="1.5"></path><path d="M54.92 669.1L258.01 677.34" stroke="rgba(255, 255, 255, 0.3)" stroke-width="1.5"></path><path d="M219.23 380.86L219.23 380.86" stroke="rgba(255, 255, 255, 0.3)" stroke-width="1.5"></path><path d="M219.23 380.86L223.5 520.17" stroke="rgba(255, 255, 255, 0.3)" stroke-width="1.5"></path><path d="M219.23 380.86L389.48 384.73" stroke="rgba(255, 255, 255, 0.3)" stroke-width="1.5"></path><path d="M223.5 520.17L223.5 520.17" stroke="rgba(255, 255, 255, 0.3)" stroke-width="1.5"></path><path d="M223.5 520.17L372.99 501.14" stroke="rgba(255, 255, 255, 0.3)" stroke-width="1.5"></path><path d="M258.01 677.34L258.01 677.34" stroke="rgba(255, 255, 255, 0.3)" stroke-width="1.5"></path><path d="M258.01 677.34L356.97 694.48" stroke="rgba(255, 255, 255, 0.3)" stroke-width="1.5"></path><path d="M258.01 677.34L223.5 520.17" stroke="rgba(255, 255, 255, 0.3)" stroke-width="1.5"></path><path d="M389.48 384.73L389.48 384.73" stroke="rgba(255, 255, 255, 0.3)" stroke-width="1.5"></path><path d="M389.48 384.73L492.1 347.41" stroke="rgba(255, 255, 255, 0.3)" stroke-width="1.5"></path><path d="M389.48 384.73L372.99 501.14" stroke="rgba(255, 255, 255, 0.3)" stroke-width="1.5"></path><path d="M389.48 384.73L223.5 520.17" stroke="rgba(255, 255, 255, 0.3)" stroke-width="1.5"></path><path d="M389.48 384.73L542.17 544.01" stroke="rgba(255, 255, 255, 0.3)" stroke-width="1.5"></path><path d="M372.99 501.14L372.99 501.14" stroke="rgba(255, 255, 255, 0.3)" stroke-width="1.5"></path><path d="M372.99 501.14L542.17 544.01" stroke="rgba(255, 255, 255, 0.3)" stroke-width="1.5"></path><path d="M372.99 501.14L356.97 694.48" stroke="rgba(255, 255, 255, 0.3)" stroke-width="1.5"></path><path d="M372.99 501.14L492.1 347.41" stroke="rgba(255, 255, 255, 0.3)" stroke-width="1.5"></path><path d="M356.97 694.48L356.97 694.48" stroke="rgba(255, 255, 255, 0.3)" stroke-width="1.5"></path><path d="M356.97 694.48L500.61 687.19" stroke="rgba(255, 255, 255, 0.3)" stroke-width="1.5"></path><path d="M356.97 694.48L223.5 520.17" stroke="rgba(255, 255, 255, 0.3)" stroke-width="1.5"></path><path d="M356.97 694.48L542.17 544.01" stroke="rgba(255, 255, 255, 0.3)" stroke-width="1.5"></path><path d="M492.1 347.41L492.1 347.41" stroke="rgba(255, 255, 255, 0.3)" stroke-width="1.5"></path><path d="M492.1 347.41L542.17 544.01" stroke="rgba(255, 255, 255, 0.3)" stroke-width="1.5"></path><path d="M492.1 347.41L695.26 402.73" stroke="rgba(255, 255, 255, 0.3)" stroke-width="1.5"></path><path d="M492.1 347.41L219.23 380.86" stroke="rgba(255, 255, 255, 0.3)" stroke-width="1.5"></path><path d="M492.1 347.41L223.5 520.17" stroke="rgba(255, 255, 255, 0.3)" stroke-width="1.5"></path><path d="M542.17 544.01L542.17 544.01" stroke="rgba(255, 255, 255, 0.3)" stroke-width="1.5"></path><path d="M542.17 544.01L500.61 687.19" stroke="rgba(255, 255, 255, 0.3)" stroke-width="1.5"></path><path d="M542.17 544.01L682.8 642.4" stroke="rgba(255, 255, 255, 0.3)" stroke-width="1.5"></path><path d="M500.61 687.19L500.61 687.19" stroke="rgba(255, 255, 255, 0.3)" stroke-width="1.5"></path><path d="M695.26 402.73L695.26 402.73" stroke="rgba(255, 255, 255, 0.3)" stroke-width="1.5"></path><path d="M695.26 402.73L803.69 500.82" stroke="rgba(255, 255, 255, 0.3)" stroke-width="1.5"></path><path d="M695.26 402.73L542.17 544.01" stroke="rgba(255, 255, 255, 0.3)" stroke-width="1.5"></path><path d="M682.8 642.4L682.8 642.4" stroke="rgba(255, 255, 255, 0.3)" stroke-width="1.5"></path><path d="M682.8 642.4L817.78 692.54" stroke="rgba(255, 255, 255, 0.3)" stroke-width="1.5"></path><path d="M682.8 642.4L803.69 500.82" stroke="rgba(255, 255, 255, 0.3)" stroke-width="1.5"></path><path d="M682.8 642.4L500.61 687.19" stroke="rgba(255, 255, 255, 0.3)" stroke-width="1.5"></path><path d="M682.8 642.4L695.26 402.73" stroke="rgba(255, 255, 255, 0.3)" stroke-width="1.5"></path><path d="M819.51 211.47L819.51 211.47" stroke="rgba(255, 255, 255, 0.3)" stroke-width="1.5"></path><path d="M819.51 211.47L943.16 216.63" stroke="rgba(255, 255, 255, 0.3)" stroke-width="1.5"></path><path d="M819.51 211.47L952.49 102.23" stroke="rgba(255, 255, 255, 0.3)" stroke-width="1.5"></path><path d="M819.51 211.47L695.26 402.73" stroke="rgba(255, 255, 255, 0.3)" stroke-width="1.5"></path><path d="M803.69 500.82L803.69 500.82" stroke="rgba(255, 255, 255, 0.3)" stroke-width="1.5"></path><path d="M803.69 500.82L970.05 537.32" stroke="rgba(255, 255, 255, 0.3)" stroke-width="1.5"></path><path d="M817.78 692.54L817.78 692.54" stroke="rgba(255, 255, 255, 0.3)" stroke-width="1.5"></path><path d="M817.78 692.54L803.69 500.82" stroke="rgba(255, 255, 255, 0.3)" stroke-width="1.5"></path><path d="M817.78 692.54L1011.76 687.97" stroke="rgba(255, 255, 255, 0.3)" stroke-width="1.5"></path><path d="M817.78 692.54L970.05 537.32" stroke="rgba(255, 255, 255, 0.3)" stroke-width="1.5"></path><path d="M952.49 102.23L952.49 102.23" stroke="rgba(255, 255, 255, 0.3)" stroke-width="1.5"></path><path d="M952.49 102.23L943.16 216.63" stroke="rgba(255, 255, 255, 0.3)" stroke-width="1.5"></path><path d="M952.49 102.23L1101.11 38.67" stroke="rgba(255, 255, 255, 0.3)" stroke-width="1.5"></path><path d="M952.49 102.23L1148.28 212.25" stroke="rgba(255, 255, 255, 0.3)" stroke-width="1.5"></path><path d="M952.49 102.23L998.02 355.09" stroke="rgba(255, 255, 255, 0.3)" stroke-width="1.5"></path><path d="M943.16 216.63L943.16 216.63" stroke="rgba(255, 255, 255, 0.3)" stroke-width="1.5"></path><path d="M943.16 216.63L998.02 355.09" stroke="rgba(255, 255, 255, 0.3)" stroke-width="1.5"></path><path d="M943.16 216.63L1148.28 212.25" stroke="rgba(255, 255, 255, 0.3)" stroke-width="1.5"></path><path d="M998.02 355.09L998.02 355.09" stroke="rgba(255, 255, 255, 0.3)" stroke-width="1.5"></path><path d="M998.02 355.09L1101.63 501.75" stroke="rgba(255, 255, 255, 0.3)" stroke-width="1.5"></path><path d="M970.05 537.32L970.05 537.32" stroke="rgba(255, 255, 255, 0.3)" stroke-width="1.5"></path><path d="M970.05 537.32L1101.63 501.75" stroke="rgba(255, 255, 255, 0.3)" stroke-width="1.5"></path><path d="M970.05 537.32L1011.76 687.97" stroke="rgba(255, 255, 255, 0.3)" stroke-width="1.5"></path><path d="M970.05 537.32L998.02 355.09" stroke="rgba(255, 255, 255, 0.3)" stroke-width="1.5"></path><path d="M1011.76 687.97L1011.76 687.97" stroke="rgba(255, 255, 255, 0.3)" stroke-width="1.5"></path><path d="M1011.76 687.97L1131.37 645.78" stroke="rgba(255, 255, 255, 0.3)" stroke-width="1.5"></path><path d="M1011.76 687.97L1101.63 501.75" stroke="rgba(255, 255, 255, 0.3)" stroke-width="1.5"></path><path d="M1141.21 -78.69L1141.21 -78.69" stroke="rgba(255, 255, 255, 0.3)" stroke-width="1.5"></path><path d="M1141.21 -78.69L1101.11 38.67" stroke="rgba(255, 255, 255, 0.3)" stroke-width="1.5"></path><path d="M1141.21 -78.69L1295.36 45.66" stroke="rgba(255, 255, 255, 0.3)" stroke-width="1.5"></path><path d="M1141.21 -78.69L952.49 102.23" stroke="rgba(255, 255, 255, 0.3)" stroke-width="1.5"></path><path d="M1101.11 38.67L1101.11 38.67" stroke="rgba(255, 255, 255, 0.3)" stroke-width="1.5"></path><path d="M1101.11 38.67L1148.28 212.25" stroke="rgba(255, 255, 255, 0.3)" stroke-width="1.5"></path><path d="M1101.11 38.67L1295.36 45.66" stroke="rgba(255, 255, 255, 0.3)" stroke-width="1.5"></path><path d="M1148.28 212.25L1148.28 212.25" stroke="rgba(255, 255, 255, 0.3)" stroke-width="1.5"></path><path d="M1148.28 212.25L1287.4 213.99" stroke="rgba(255, 255, 255, 0.3)" stroke-width="1.5"></path><path d="M1101.63 501.75L1101.63 501.75" stroke="rgba(255, 255, 255, 0.3)" stroke-width="1.5"></path><path d="M1101.63 501.75L1131.37 645.78" stroke="rgba(255, 255, 255, 0.3)" stroke-width="1.5"></path><path d="M1131.37 645.78L1131.37 645.78" stroke="rgba(255, 255, 255, 0.3)" stroke-width="1.5"></path><path d="M1131.37 645.78L1256.45 508.41" stroke="rgba(255, 255, 255, 0.3)" stroke-width="1.5"></path><path d="M1131.37 645.78L970.05 537.32" stroke="rgba(255, 255, 255, 0.3)" stroke-width="1.5"></path><path d="M1131.37 645.78L1406.28 663.73" stroke="rgba(255, 255, 255, 0.3)" stroke-width="1.5"></path><path d="M1131.37 645.78L817.78 692.54" stroke="rgba(255, 255, 255, 0.3)" stroke-width="1.5"></path><path d="M1295.36 45.66L1295.36 45.66" stroke="rgba(255, 255, 255, 0.3)" stroke-width="1.5"></path><path d="M1295.36 45.66L1416.22 109.81" stroke="rgba(255, 255, 255, 0.3)" stroke-width="1.5"></path><path d="M1295.36 45.66L1287.4 213.99" stroke="rgba(255, 255, 255, 0.3)" stroke-width="1.5"></path><path d="M1287.4 213.99L1287.4 213.99" stroke="rgba(255, 255, 255, 0.3)" stroke-width="1.5"></path><path d="M1287.4 213.99L1442.43 236.96" stroke="rgba(255, 255, 255, 0.3)" stroke-width="1.5"></path><path d="M1287.4 213.99L1416.22 109.81" stroke="rgba(255, 255, 255, 0.3)" stroke-width="1.5"></path><path d="M1287.4 213.99L1403.57 364.37" stroke="rgba(255, 255, 255, 0.3)" stroke-width="1.5"></path><path d="M1256.45 508.41L1256.45 508.41" stroke="rgba(255, 255, 255, 0.3)" stroke-width="1.5"></path><path d="M1256.45 508.41L1101.63 501.75" stroke="rgba(255, 255, 255, 0.3)" stroke-width="1.5"></path><path d="M1256.45 508.41L1432.06 530.77" stroke="rgba(255, 255, 255, 0.3)" stroke-width="1.5"></path><path d="M1256.45 508.41L1403.57 364.37" stroke="rgba(255, 255, 255, 0.3)" stroke-width="1.5"></path><path d="M1256.45 508.41L1406.28 663.73" stroke="rgba(255, 255, 255, 0.3)" stroke-width="1.5"></path><path d="M1439.45 -58.41L1439.45 -58.41" stroke="rgba(255, 255, 255, 0.3)" stroke-width="1.5"></path><path d="M1439.45 -58.41L1545.36 53.81" stroke="rgba(255, 255, 255, 0.3)" stroke-width="1.5"></path><path d="M1439.45 -58.41L1416.22 109.81" stroke="rgba(255, 255, 255, 0.3)" stroke-width="1.5"></path><path d="M1439.45 -58.41L1611.28 -58.67" stroke="rgba(255, 255, 255, 0.3)" stroke-width="1.5"></path><path d="M1439.45 -58.41L1295.36 45.66" stroke="rgba(255, 255, 255, 0.3)" stroke-width="1.5"></path><path d="M1439.45 -58.41L1442.43 236.96" stroke="rgba(255, 255, 255, 0.3)" stroke-width="1.5"></path><path d="M1416.22 109.81L1416.22 109.81" stroke="rgba(255, 255, 255, 0.3)" stroke-width="1.5"></path><path d="M1416.22 109.81L1442.43 236.96" stroke="rgba(255, 255, 255, 0.3)" stroke-width="1.5"></path><path d="M1442.43 236.96L1442.43 236.96" stroke="rgba(255, 255, 255, 0.3)" stroke-width="1.5"></path><path d="M1442.43 236.96L1403.57 364.37" stroke="rgba(255, 255, 255, 0.3)" stroke-width="1.5"></path><path d="M1442.43 236.96L1586.26 260.39" stroke="rgba(255, 255, 255, 0.3)" stroke-width="1.5"></path><path d="M1442.43 236.96L1611.33 338.31" stroke="rgba(255, 255, 255, 0.3)" stroke-width="1.5"></path><path d="M1442.43 236.96L1545.36 53.81" stroke="rgba(255, 255, 255, 0.3)" stroke-width="1.5"></path><path d="M1403.57 364.37L1403.57 364.37" stroke="rgba(255, 255, 255, 0.3)" stroke-width="1.5"></path><path d="M1403.57 364.37L1432.06 530.77" stroke="rgba(255, 255, 255, 0.3)" stroke-width="1.5"></path><path d="M1432.06 530.77L1432.06 530.77" stroke="rgba(255, 255, 255, 0.3)" stroke-width="1.5"></path><path d="M1432.06 530.77L1406.28 663.73" stroke="rgba(255, 255, 255, 0.3)" stroke-width="1.5"></path><path d="M1432.06 530.77L1582.67 517.08" stroke="rgba(255, 255, 255, 0.3)" stroke-width="1.5"></path><path d="M1406.28 663.73L1406.28 663.73" stroke="rgba(255, 255, 255, 0.3)" stroke-width="1.5"></path><path d="M1406.28 663.73L1562.41 661.24" stroke="rgba(255, 255, 255, 0.3)" stroke-width="1.5"></path><path d="M1611.28 -58.67L1611.28 -58.67" stroke="rgba(255, 255, 255, 0.3)" stroke-width="1.5"></path><path d="M1611.28 -58.67L1545.36 53.81" stroke="rgba(255, 255, 255, 0.3)" stroke-width="1.5"></path><path d="M1611.28 -58.67L1740.44 -103.25" stroke="rgba(255, 255, 255, 0.3)" stroke-width="1.5"></path><path d="M1611.28 -58.67L1758.48 90.56" stroke="rgba(255, 255, 255, 0.3)" stroke-width="1.5"></path><path d="M1545.36 53.81L1545.36 53.81" stroke="rgba(255, 255, 255, 0.3)" stroke-width="1.5"></path><path d="M1545.36 53.81L1416.22 109.81" stroke="rgba(255, 255, 255, 0.3)" stroke-width="1.5"></path><path d="M1586.26 260.39L1586.26 260.39" stroke="rgba(255, 255, 255, 0.3)" stroke-width="1.5"></path><path d="M1586.26 260.39L1611.33 338.31" stroke="rgba(255, 255, 255, 0.3)" stroke-width="1.5"></path><path d="M1586.26 260.39L1742.68 208.7" stroke="rgba(255, 255, 255, 0.3)" stroke-width="1.5"></path><path d="M1611.33 338.31L1611.33 338.31" stroke="rgba(255, 255, 255, 0.3)" stroke-width="1.5"></path><path d="M1611.33 338.31L1760.01 350.7" stroke="rgba(255, 255, 255, 0.3)" stroke-width="1.5"></path><path d="M1611.33 338.31L1582.67 517.08" stroke="rgba(255, 255, 255, 0.3)" stroke-width="1.5"></path><path d="M1611.33 338.31L1742.68 208.7" stroke="rgba(255, 255, 255, 0.3)" stroke-width="1.5"></path><path d="M1582.67 517.08L1582.67 517.08" stroke="rgba(255, 255, 255, 0.3)" stroke-width="1.5"></path><path d="M1582.67 517.08L1562.41 661.24" stroke="rgba(255, 255, 255, 0.3)" stroke-width="1.5"></path><path d="M1582.67 517.08L1695.64 640.82" stroke="rgba(255, 255, 255, 0.3)" stroke-width="1.5"></path><path d="M1582.67 517.08L1755.1 511.95" stroke="rgba(255, 255, 255, 0.3)" stroke-width="1.5"></path><path d="M1582.67 517.08L1406.28 663.73" stroke="rgba(255, 255, 255, 0.3)" stroke-width="1.5"></path><path d="M1562.41 661.24L1562.41 661.24" stroke="rgba(255, 255, 255, 0.3)" stroke-width="1.5"></path><path d="M1562.41 661.24L1695.64 640.82" stroke="rgba(255, 255, 255, 0.3)" stroke-width="1.5"></path><path d="M1562.41 661.24L1432.06 530.77" stroke="rgba(255, 255, 255, 0.3)" stroke-width="1.5"></path><path d="M1740.44 -103.25L1740.44 -103.25" stroke="rgba(255, 255, 255, 0.3)" stroke-width="1.5"></path><path d="M1740.44 -103.25L1758.48 90.56" stroke="rgba(255, 255, 255, 0.3)" stroke-width="1.5"></path><path d="M1740.44 -103.25L1545.36 53.81" stroke="rgba(255, 255, 255, 0.3)" stroke-width="1.5"></path><path d="M1758.48 90.56L1758.48 90.56" stroke="rgba(255, 255, 255, 0.3)" stroke-width="1.5"></path><path d="M1758.48 90.56L1742.68 208.7" stroke="rgba(255, 255, 255, 0.3)" stroke-width="1.5"></path><path d="M1758.48 90.56L1545.36 53.81" stroke="rgba(255, 255, 255, 0.3)" stroke-width="1.5"></path><path d="M1758.48 90.56L1586.26 260.39" stroke="rgba(255, 255, 255, 0.3)" stroke-width="1.5"></path><path d="M1742.68 208.7L1742.68 208.7" stroke="rgba(255, 255, 255, 0.3)" stroke-width="1.5"></path><path d="M1742.68 208.7L1760.01 350.7" stroke="rgba(255, 255, 255, 0.3)" stroke-width="1.5"></path><path d="M1742.68 208.7L1545.36 53.81" stroke="rgba(255, 255, 255, 0.3)" stroke-width="1.5"></path><path d="M1760.01 350.7L1760.01 350.7" stroke="rgba(255, 255, 255, 0.3)" stroke-width="1.5"></path><path d="M1760.01 350.7L1755.1 511.95" stroke="rgba(255, 255, 255, 0.3)" stroke-width="1.5"></path><path d="M1760.01 350.7L1586.26 260.39" stroke="rgba(255, 255, 255, 0.3)" stroke-width="1.5"></path><path d="M1755.1 511.95L1755.1 511.95" stroke="rgba(255, 255, 255, 0.3)" stroke-width="1.5"></path><path d="M1755.1 511.95L1695.64 640.82" stroke="rgba(255, 255, 255, 0.3)" stroke-width="1.5"></path><path d="M1755.1 511.95L1611.33 338.31" stroke="rgba(255, 255, 255, 0.3)" stroke-width="1.5"></path><path d="M1695.64 640.82L1695.64 640.82" stroke="rgba(255, 255, 255, 0.3)" stroke-width="1.5"></path><circle r="5" cx="-76.3" cy="365.36" fill="rgba(255, 255, 255, 0.3)"></circle><circle r="5" cx="-66.6" cy="490.87" fill="rgba(255, 255, 255, 0.3)"></circle><circle r="5" cx="-58.87" cy="707.96" fill="rgba(255, 255, 255, 0.3)"></circle><circle r="5" cx="57.9" cy="372.86" fill="rgba(255, 255, 255, 0.3)"></circle><circle r="5" cx="54.92" cy="669.1" fill="rgba(255, 255, 255, 0.3)"></circle><circle r="5" cx="219.23" cy="380.86" fill="rgba(255, 255, 255, 0.3)"></circle><circle r="5" cx="223.5" cy="520.17" fill="rgba(255, 255, 255, 0.3)"></circle><circle r="5" cx="258.01" cy="677.34" fill="rgba(255, 255, 255, 0.3)"></circle><circle r="5" cx="389.48" cy="384.73" fill="rgba(255, 255, 255, 0.3)"></circle><circle r="5" cx="372.99" cy="501.14" fill="rgba(255, 255, 255, 0.3)"></circle><circle r="5" cx="356.97" cy="694.48" fill="rgba(255, 255, 255, 0.3)"></circle><circle r="5" cx="492.1" cy="347.41" fill="rgba(255, 255, 255, 0.3)"></circle><circle r="5" cx="542.17" cy="544.01" fill="rgba(255, 255, 255, 0.3)"></circle><circle r="5" cx="500.61" cy="687.19" fill="rgba(255, 255, 255, 0.3)"></circle><circle r="5" cx="695.26" cy="402.73" fill="rgba(255, 255, 255, 0.3)"></circle><circle r="5" cx="682.8" cy="642.4" fill="rgba(255, 255, 255, 0.3)"></circle><circle r="5" cx="819.51" cy="211.47" fill="rgba(255, 255, 255, 0.3)"></circle><circle r="5" cx="803.69" cy="500.82" fill="rgba(255, 255, 255, 0.3)"></circle><circle r="5" cx="817.78" cy="692.54" fill="rgba(255, 255, 255, 0.3)"></circle><circle r="5" cx="952.49" cy="102.23" fill="rgba(255, 255, 255, 0.3)"></circle><circle r="5" cx="943.16" cy="216.63" fill="rgba(255, 255, 255, 0.3)"></circle><circle r="5" cx="998.02" cy="355.09" fill="rgba(255, 255, 255, 0.3)"></circle><circle r="5" cx="970.05" cy="537.32" fill="rgba(255, 255, 255, 0.3)"></circle><circle r="5" cx="1011.76" cy="687.97" fill="rgba(255, 255, 255, 0.3)"></circle><circle r="5" cx="1141.21" cy="-78.69" fill="rgba(255, 255, 255, 0.3)"></circle><circle r="5" cx="1101.11" cy="38.67" fill="rgba(255, 255, 255, 0.3)"></circle><circle r="5" cx="1148.28" cy="212.25" fill="rgba(255, 255, 255, 0.3)"></circle><circle r="5" cx="1101.63" cy="501.75" fill="rgba(255, 255, 255, 0.3)"></circle><circle r="5" cx="1131.37" cy="645.78" fill="rgba(255, 255, 255, 0.3)"></circle><circle r="5" cx="1295.36" cy="45.66" fill="rgba(255, 255, 255, 0.3)"></circle><circle r="5" cx="1287.4" cy="213.99" fill="rgba(255, 255, 255, 0.3)"></circle><circle r="5" cx="1256.45" cy="508.41" fill="rgba(255, 255, 255, 0.3)"></circle><circle r="5" cx="1439.45" cy="-58.41" fill="rgba(255, 255, 255, 0.3)"></circle><circle r="5" cx="1416.22" cy="109.81" fill="rgba(255, 255, 255, 0.3)"></circle><circle r="5" cx="1442.43" cy="236.96" fill="rgba(255, 255, 255, 0.3)"></circle><circle r="5" cx="1403.57" cy="364.37" fill="rgba(255, 255, 255, 0.3)"></circle><circle r="5" cx="1432.06" cy="530.77" fill="rgba(255, 255, 255, 0.3)"></circle><circle r="5" cx="1406.28" cy="663.73" fill="rgba(255, 255, 255, 0.3)"></circle><circle r="5" cx="1611.28" cy="-58.67" fill="rgba(255, 255, 255, 0.3)"></circle><circle r="5" cx="1545.36" cy="53.81" fill="rgba(255, 255, 255, 0.3)"></circle><circle r="5" cx="1586.26" cy="260.39" fill="rgba(255, 255, 255, 0.3)"></circle><circle r="5" cx="1611.33" cy="338.31" fill="rgba(255, 255, 255, 0.3)"></circle><circle r="5" cx="1582.67" cy="517.08" fill="rgba(255, 255, 255, 0.3)"></circle><circle r="5" cx="1562.41" cy="661.24" fill="rgba(255, 255, 255, 0.3)"></circle><circle r="5" cx="1740.44" cy="-103.25" fill="rgba(255, 255, 255, 0.3)"></circle><circle r="5" cx="1758.48" cy="90.56" fill="rgba(255, 255, 255, 0.3)"></circle><circle r="5" cx="1742.68" cy="208.7" fill="rgba(255, 255, 255, 0.3)"></circle><circle r="5" cx="1760.01" cy="350.7" fill="rgba(255, 255, 255, 0.3)"></circle><circle r="5" cx="1755.1" cy="511.95" fill="rgba(255, 255, 255, 0.3)"></circle><circle r="5" cx="1695.64" cy="640.82" fill="rgba(255, 255, 255, 0.3)"></circle><path d="M-103.48 701.02L-103.48 701.02" stroke="hsla(0, 0%, 100%, 0.2)" stroke-width="1.5"></path><path d="M-103.48 701.02L99.72 699.15" stroke="hsla(0, 0%, 100%, 0.2)" stroke-width="1.5"></path><path d="M-103.48 701.02L-93.08 491.19" stroke="hsla(0, 0%, 100%, 0.2)" stroke-width="1.5"></path><path d="M-103.48 701.02L70.95 492.12" stroke="hsla(0, 0%, 100%, 0.2)" stroke-width="1.5"></path><path d="M-103.48 701.02L215.46 542.13" stroke="hsla(0, 0%, 100%, 0.2)" stroke-width="1.5"></path><path d="M695.71 374.81L695.71 374.81" stroke="hsla(0, 0%, 100%, 0.2)" stroke-width="1.5"></path><path d="M695.71 374.81L701.23 497.08" stroke="hsla(0, 0%, 100%, 0.2)" stroke-width="1.5"></path><path d="M695.71 374.81L851.73 382.99" stroke="hsla(0, 0%, 100%, 0.2)" stroke-width="1.5"></path><path d="M791.05 665.06L791.05 665.06" stroke="hsla(0, 0%, 100%, 0.2)" stroke-width="1.5"></path><path d="M791.05 665.06L673.99 696.62" stroke="hsla(0, 0%, 100%, 0.2)" stroke-width="1.5"></path><path d="M791.05 665.06L833.05 549.68" stroke="hsla(0, 0%, 100%, 0.2)" stroke-width="1.5"></path><path d="M791.05 665.06L959.07 650.85" stroke="hsla(0, 0%, 100%, 0.2)" stroke-width="1.5"></path><path d="M791.05 665.06L701.23 497.08" stroke="hsla(0, 0%, 100%, 0.2)" stroke-width="1.5"></path><path d="M791.05 665.06L987.53 531.48" stroke="hsla(0, 0%, 100%, 0.2)" stroke-width="1.5"></path><path d="M791.05 665.06L525.61 676.17" stroke="hsla(0, 0%, 100%, 0.2)" stroke-width="1.5"></path><path d="M959.07 650.85L959.07 650.85" stroke="hsla(0, 0%, 100%, 0.2)" stroke-width="1.5"></path><path d="M959.07 650.85L987.53 531.48" stroke="hsla(0, 0%, 100%, 0.2)" stroke-width="1.5"></path><path d="M959.07 650.85L1093.18 697.91" stroke="hsla(0, 0%, 100%, 0.2)" stroke-width="1.5"></path><path d="M959.07 650.85L833.05 549.68" stroke="hsla(0, 0%, 100%, 0.2)" stroke-width="1.5"></path><path d="M959.07 650.85L1100.7 537.11" stroke="hsla(0, 0%, 100%, 0.2)" stroke-width="1.5"></path><path d="M1311.34 105.2L1311.34 105.2" stroke="hsla(0, 0%, 100%, 0.2)" stroke-width="1.5"></path><path d="M1311.34 105.2L1401.2 49.8" stroke="hsla(0, 0%, 100%, 0.2)" stroke-width="1.5"></path><path d="M1311.34 105.2L1254.61 209.71" stroke="hsla(0, 0%, 100%, 0.2)" stroke-width="1.5"></path><path d="M1311.34 105.2L1395.84 -47.58" stroke="hsla(0, 0%, 100%, 0.2)" stroke-width="1.5"></path><path d="M1311.34 105.2L1416.42 247.32" stroke="hsla(0, 0%, 100%, 0.2)" stroke-width="1.5"></path><path d="M1311.34 105.2L1118.61 229.12" stroke="hsla(0, 0%, 100%, 0.2)" stroke-width="1.5"></path><path d="M1311.34 105.2L1250.02 338.4" stroke="hsla(0, 0%, 100%, 0.2)" stroke-width="1.5"></path><path d="M1254.61 209.71L1254.61 209.71" stroke="hsla(0, 0%, 100%, 0.2)" stroke-width="1.5"></path><path d="M1254.61 209.71L1250.02 338.4" stroke="hsla(0, 0%, 100%, 0.2)" stroke-width="1.5"></path><path d="M1254.61 209.71L1118.61 229.12" stroke="hsla(0, 0%, 100%, 0.2)" stroke-width="1.5"></path><path d="M1254.61 209.71L1416.42 247.32" stroke="hsla(0, 0%, 100%, 0.2)" stroke-width="1.5"></path><path d="M1718.5 674.66L1718.5 674.66" stroke="hsla(0, 0%, 100%, 0.2)" stroke-width="1.5"></path><path d="M1718.5 674.66L1610.67 704.44" stroke="hsla(0, 0%, 100%, 0.2)" stroke-width="1.5"></path><path d="M1718.5 674.66L1695.82 531.71" stroke="hsla(0, 0%, 100%, 0.2)" stroke-width="1.5"></path><path d="M1718.5 674.66L1548.12 550.44" stroke="hsla(0, 0%, 100%, 0.2)" stroke-width="1.5"></path><path d="M1718.5 674.66L1437.5 687.89" stroke="hsla(0, 0%, 100%, 0.2)" stroke-width="1.5"></path><path d="M1718.5 674.66L1442 518.4" stroke="hsla(0, 0%, 100%, 0.2)" stroke-width="1.5"></path><path d="M1718.5 674.66L1728.76 355.5" stroke="hsla(0, 0%, 100%, 0.2)" stroke-width="1.5"></path><path d="M-93.08 491.19L-93.08 491.19" stroke="hsla(0, 0%, 100%, 0.2)" stroke-width="1.5"></path><path d="M-93.08 491.19L70.95 492.12" stroke="hsla(0, 0%, 100%, 0.2)" stroke-width="1.5"></path><path d="M70.95 492.12L70.95 492.12" stroke="hsla(0, 0%, 100%, 0.2)" stroke-width="1.5"></path><path d="M70.95 492.12L215.46 542.13" stroke="hsla(0, 0%, 100%, 0.2)" stroke-width="1.5"></path><path d="M70.95 492.12L99.72 699.15" stroke="hsla(0, 0%, 100%, 0.2)" stroke-width="1.5"></path><path d="M70.95 492.12L371.92 552.53" stroke="hsla(0, 0%, 100%, 0.2)" stroke-width="1.5"></path><path d="M99.72 699.15L99.72 699.15" stroke="hsla(0, 0%, 100%, 0.2)" stroke-width="1.5"></path><path d="M99.72 699.15L215.46 542.13" stroke="hsla(0, 0%, 100%, 0.2)" stroke-width="1.5"></path><path d="M215.46 542.13L215.46 542.13" stroke="hsla(0, 0%, 100%, 0.2)" stroke-width="1.5"></path><path d="M215.46 542.13L371.92 552.53" stroke="hsla(0, 0%, 100%, 0.2)" stroke-width="1.5"></path><path d="M215.46 542.13L343.84 650.74" stroke="hsla(0, 0%, 100%, 0.2)" stroke-width="1.5"></path><path d="M215.46 542.13L411.8 386.96" stroke="hsla(0, 0%, 100%, 0.2)" stroke-width="1.5"></path><path d="M411.8 386.96L411.8 386.96" stroke="hsla(0, 0%, 100%, 0.2)" stroke-width="1.5"></path><path d="M411.8 386.96L510.44 409.16" stroke="hsla(0, 0%, 100%, 0.2)" stroke-width="1.5"></path><path d="M411.8 386.96L487.73 509.79" stroke="hsla(0, 0%, 100%, 0.2)" stroke-width="1.5"></path><path d="M411.8 386.96L371.92 552.53" stroke="hsla(0, 0%, 100%, 0.2)" stroke-width="1.5"></path><path d="M371.92 552.53L371.92 552.53" stroke="hsla(0, 0%, 100%, 0.2)" stroke-width="1.5"></path><path d="M371.92 552.53L343.84 650.74" stroke="hsla(0, 0%, 100%, 0.2)" stroke-width="1.5"></path><path d="M343.84 650.74L343.84 650.74" stroke="hsla(0, 0%, 100%, 0.2)" stroke-width="1.5"></path><path d="M510.44 409.16L510.44 409.16" stroke="hsla(0, 0%, 100%, 0.2)" stroke-width="1.5"></path><path d="M510.44 409.16L487.73 509.79" stroke="hsla(0, 0%, 100%, 0.2)" stroke-width="1.5"></path><path d="M510.44 409.16L695.71 374.81" stroke="hsla(0, 0%, 100%, 0.2)" stroke-width="1.5"></path><path d="M510.44 409.16L371.92 552.53" stroke="hsla(0, 0%, 100%, 0.2)" stroke-width="1.5"></path><path d="M510.44 409.16L701.23 497.08" stroke="hsla(0, 0%, 100%, 0.2)" stroke-width="1.5"></path><path d="M510.44 409.16L525.61 676.17" stroke="hsla(0, 0%, 100%, 0.2)" stroke-width="1.5"></path><path d="M487.73 509.79L487.73 509.79" stroke="hsla(0, 0%, 100%, 0.2)" stroke-width="1.5"></path><path d="M487.73 509.79L371.92 552.53" stroke="hsla(0, 0%, 100%, 0.2)" stroke-width="1.5"></path><path d="M525.61 676.17L525.61 676.17" stroke="hsla(0, 0%, 100%, 0.2)" stroke-width="1.5"></path><path d="M525.61 676.17L673.99 696.62" stroke="hsla(0, 0%, 100%, 0.2)" stroke-width="1.5"></path><path d="M525.61 676.17L487.73 509.79" stroke="hsla(0, 0%, 100%, 0.2)" stroke-width="1.5"></path><path d="M525.61 676.17L343.84 650.74" stroke="hsla(0, 0%, 100%, 0.2)" stroke-width="1.5"></path><path d="M525.61 676.17L371.92 552.53" stroke="hsla(0, 0%, 100%, 0.2)" stroke-width="1.5"></path><path d="M525.61 676.17L701.23 497.08" stroke="hsla(0, 0%, 100%, 0.2)" stroke-width="1.5"></path><path d="M701.23 497.08L701.23 497.08" stroke="hsla(0, 0%, 100%, 0.2)" stroke-width="1.5"></path><path d="M701.23 497.08L833.05 549.68" stroke="hsla(0, 0%, 100%, 0.2)" stroke-width="1.5"></path><path d="M701.23 497.08L851.73 382.99" stroke="hsla(0, 0%, 100%, 0.2)" stroke-width="1.5"></path><path d="M701.23 497.08L673.99 696.62" stroke="hsla(0, 0%, 100%, 0.2)" stroke-width="1.5"></path><path d="M673.99 696.62L673.99 696.62" stroke="hsla(0, 0%, 100%, 0.2)" stroke-width="1.5"></path><path d="M673.99 696.62L833.05 549.68" stroke="hsla(0, 0%, 100%, 0.2)" stroke-width="1.5"></path><path d="M851.73 382.99L851.73 382.99" stroke="hsla(0, 0%, 100%, 0.2)" stroke-width="1.5"></path><path d="M851.73 382.99L833.05 549.68" stroke="hsla(0, 0%, 100%, 0.2)" stroke-width="1.5"></path><path d="M851.73 382.99L987.53 531.48" stroke="hsla(0, 0%, 100%, 0.2)" stroke-width="1.5"></path><path d="M851.73 382.99L1121.79 360.24" stroke="hsla(0, 0%, 100%, 0.2)" stroke-width="1.5"></path><path d="M833.05 549.68L833.05 549.68" stroke="hsla(0, 0%, 100%, 0.2)" stroke-width="1.5"></path><path d="M987.53 531.48L987.53 531.48" stroke="hsla(0, 0%, 100%, 0.2)" stroke-width="1.5"></path><path d="M987.53 531.48L1100.7 537.11" stroke="hsla(0, 0%, 100%, 0.2)" stroke-width="1.5"></path><path d="M987.53 531.48L833.05 549.68" stroke="hsla(0, 0%, 100%, 0.2)" stroke-width="1.5"></path><path d="M987.53 531.48L1093.18 697.91" stroke="hsla(0, 0%, 100%, 0.2)" stroke-width="1.5"></path><path d="M1118.61 229.12L1118.61 229.12" stroke="hsla(0, 0%, 100%, 0.2)" stroke-width="1.5"></path><path d="M1118.61 229.12L1121.79 360.24" stroke="hsla(0, 0%, 100%, 0.2)" stroke-width="1.5"></path><path d="M1118.61 229.12L1250.02 338.4" stroke="hsla(0, 0%, 100%, 0.2)" stroke-width="1.5"></path><path d="M1118.61 229.12L1416.42 247.32" stroke="hsla(0, 0%, 100%, 0.2)" stroke-width="1.5"></path><path d="M1118.61 229.12L851.73 382.99" stroke="hsla(0, 0%, 100%, 0.2)" stroke-width="1.5"></path><path d="M1121.79 360.24L1121.79 360.24" stroke="hsla(0, 0%, 100%, 0.2)" stroke-width="1.5"></path><path d="M1121.79 360.24L1250.02 338.4" stroke="hsla(0, 0%, 100%, 0.2)" stroke-width="1.5"></path><path d="M1121.79 360.24L1100.7 537.11" stroke="hsla(0, 0%, 100%, 0.2)" stroke-width="1.5"></path><path d="M1121.79 360.24L1254.61 209.71" stroke="hsla(0, 0%, 100%, 0.2)" stroke-width="1.5"></path><path d="M1121.79 360.24L987.53 531.48" stroke="hsla(0, 0%, 100%, 0.2)" stroke-width="1.5"></path><path d="M1100.7 537.11L1100.7 537.11" stroke="hsla(0, 0%, 100%, 0.2)" stroke-width="1.5"></path><path d="M1100.7 537.11L1256.45 552.72" stroke="hsla(0, 0%, 100%, 0.2)" stroke-width="1.5"></path><path d="M1093.18 697.91L1093.18 697.91" stroke="hsla(0, 0%, 100%, 0.2)" stroke-width="1.5"></path><path d="M1093.18 697.91L1100.7 537.11" stroke="hsla(0, 0%, 100%, 0.2)" stroke-width="1.5"></path><path d="M1250.02 338.4L1250.02 338.4" stroke="hsla(0, 0%, 100%, 0.2)" stroke-width="1.5"></path><path d="M1256.45 552.72L1256.45 552.72" stroke="hsla(0, 0%, 100%, 0.2)" stroke-width="1.5"></path><path d="M1256.45 552.72L1254.11 681.11" stroke="hsla(0, 0%, 100%, 0.2)" stroke-width="1.5"></path><path d="M1256.45 552.72L1442 518.4" stroke="hsla(0, 0%, 100%, 0.2)" stroke-width="1.5"></path><path d="M1256.45 552.72L1250.02 338.4" stroke="hsla(0, 0%, 100%, 0.2)" stroke-width="1.5"></path><path d="M1256.45 552.72L1093.18 697.91" stroke="hsla(0, 0%, 100%, 0.2)" stroke-width="1.5"></path><path d="M1254.11 681.11L1254.11 681.11" stroke="hsla(0, 0%, 100%, 0.2)" stroke-width="1.5"></path><path d="M1254.11 681.11L1093.18 697.91" stroke="hsla(0, 0%, 100%, 0.2)" stroke-width="1.5"></path><path d="M1254.11 681.11L1437.5 687.89" stroke="hsla(0, 0%, 100%, 0.2)" stroke-width="1.5"></path><path d="M1254.11 681.11L1100.7 537.11" stroke="hsla(0, 0%, 100%, 0.2)" stroke-width="1.5"></path><path d="M1254.11 681.11L1442 518.4" stroke="hsla(0, 0%, 100%, 0.2)" stroke-width="1.5"></path><path d="M1395.84 -47.58L1395.84 -47.58" stroke="hsla(0, 0%, 100%, 0.2)" stroke-width="1.5"></path><path d="M1395.84 -47.58L1401.2 49.8" stroke="hsla(0, 0%, 100%, 0.2)" stroke-width="1.5"></path><path d="M1395.84 -47.58L1547.37 -55.6" stroke="hsla(0, 0%, 100%, 0.2)" stroke-width="1.5"></path><path d="M1395.84 -47.58L1562.3 89.21" stroke="hsla(0, 0%, 100%, 0.2)" stroke-width="1.5"></path><path d="M1395.84 -47.58L1254.61 209.71" stroke="hsla(0, 0%, 100%, 0.2)" stroke-width="1.5"></path><path d="M1401.2 49.8L1401.2 49.8" stroke="hsla(0, 0%, 100%, 0.2)" stroke-width="1.5"></path><path d="M1401.2 49.8L1562.3 89.21" stroke="hsla(0, 0%, 100%, 0.2)" stroke-width="1.5"></path><path d="M1401.2 49.8L1547.37 -55.6" stroke="hsla(0, 0%, 100%, 0.2)" stroke-width="1.5"></path><path d="M1401.2 49.8L1416.42 247.32" stroke="hsla(0, 0%, 100%, 0.2)" stroke-width="1.5"></path><path d="M1401.2 49.8L1254.61 209.71" stroke="hsla(0, 0%, 100%, 0.2)" stroke-width="1.5"></path><path d="M1416.42 247.32L1416.42 247.32" stroke="hsla(0, 0%, 100%, 0.2)" stroke-width="1.5"></path><path d="M1416.42 247.32L1437.27 341.42" stroke="hsla(0, 0%, 100%, 0.2)" stroke-width="1.5"></path><path d="M1416.42 247.32L1562.41 239.73" stroke="hsla(0, 0%, 100%, 0.2)" stroke-width="1.5"></path><path d="M1416.42 247.32L1572.12 340.78" stroke="hsla(0, 0%, 100%, 0.2)" stroke-width="1.5"></path><path d="M1416.42 247.32L1250.02 338.4" stroke="hsla(0, 0%, 100%, 0.2)" stroke-width="1.5"></path><path d="M1437.27 341.42L1437.27 341.42" stroke="hsla(0, 0%, 100%, 0.2)" stroke-width="1.5"></path><path d="M1442 518.4L1442 518.4" stroke="hsla(0, 0%, 100%, 0.2)" stroke-width="1.5"></path><path d="M1442 518.4L1548.12 550.44" stroke="hsla(0, 0%, 100%, 0.2)" stroke-width="1.5"></path><path d="M1442 518.4L1437.5 687.89" stroke="hsla(0, 0%, 100%, 0.2)" stroke-width="1.5"></path><path d="M1442 518.4L1437.27 341.42" stroke="hsla(0, 0%, 100%, 0.2)" stroke-width="1.5"></path><path d="M1437.5 687.89L1437.5 687.89" stroke="hsla(0, 0%, 100%, 0.2)" stroke-width="1.5"></path><path d="M1437.5 687.89L1610.67 704.44" stroke="hsla(0, 0%, 100%, 0.2)" stroke-width="1.5"></path><path d="M1437.5 687.89L1548.12 550.44" stroke="hsla(0, 0%, 100%, 0.2)" stroke-width="1.5"></path><path d="M1547.37 -55.6L1547.37 -55.6" stroke="hsla(0, 0%, 100%, 0.2)" stroke-width="1.5"></path><path d="M1547.37 -55.6L1562.3 89.21" stroke="hsla(0, 0%, 100%, 0.2)" stroke-width="1.5"></path><path d="M1562.3 89.21L1562.3 89.21" stroke="hsla(0, 0%, 100%, 0.2)" stroke-width="1.5"></path><path d="M1562.3 89.21L1562.41 239.73" stroke="hsla(0, 0%, 100%, 0.2)" stroke-width="1.5"></path><path d="M1562.3 89.21L1735.63 105.66" stroke="hsla(0, 0%, 100%, 0.2)" stroke-width="1.5"></path><path d="M1562.3 89.21L1416.42 247.32" stroke="hsla(0, 0%, 100%, 0.2)" stroke-width="1.5"></path><path d="M1562.41 239.73L1562.41 239.73" stroke="hsla(0, 0%, 100%, 0.2)" stroke-width="1.5"></path><path d="M1562.41 239.73L1572.12 340.78" stroke="hsla(0, 0%, 100%, 0.2)" stroke-width="1.5"></path><path d="M1572.12 340.78L1572.12 340.78" stroke="hsla(0, 0%, 100%, 0.2)" stroke-width="1.5"></path><path d="M1572.12 340.78L1437.27 341.42" stroke="hsla(0, 0%, 100%, 0.2)" stroke-width="1.5"></path><path d="M1572.12 340.78L1728.76 355.5" stroke="hsla(0, 0%, 100%, 0.2)" stroke-width="1.5"></path><path d="M1572.12 340.78L1708.73 247.68" stroke="hsla(0, 0%, 100%, 0.2)" stroke-width="1.5"></path><path d="M1548.12 550.44L1548.12 550.44" stroke="hsla(0, 0%, 100%, 0.2)" stroke-width="1.5"></path><path d="M1548.12 550.44L1695.82 531.71" stroke="hsla(0, 0%, 100%, 0.2)" stroke-width="1.5"></path><path d="M1548.12 550.44L1610.67 704.44" stroke="hsla(0, 0%, 100%, 0.2)" stroke-width="1.5"></path><path d="M1610.67 704.44L1610.67 704.44" stroke="hsla(0, 0%, 100%, 0.2)" stroke-width="1.5"></path><path d="M1610.67 704.44L1695.82 531.71" stroke="hsla(0, 0%, 100%, 0.2)" stroke-width="1.5"></path><path d="M1702.62 -92.67L1702.62 -92.67" stroke="hsla(0, 0%, 100%, 0.2)" stroke-width="1.5"></path><path d="M1702.62 -92.67L1547.37 -55.6" stroke="hsla(0, 0%, 100%, 0.2)" stroke-width="1.5"></path><path d="M1702.62 -92.67L1735.63 105.66" stroke="hsla(0, 0%, 100%, 0.2)" stroke-width="1.5"></path><path d="M1702.62 -92.67L1562.3 89.21" stroke="hsla(0, 0%, 100%, 0.2)" stroke-width="1.5"></path><path d="M1702.62 -92.67L1395.84 -47.58" stroke="hsla(0, 0%, 100%, 0.2)" stroke-width="1.5"></path><path d="M1702.62 -92.67L1401.2 49.8" stroke="hsla(0, 0%, 100%, 0.2)" stroke-width="1.5"></path><path d="M1702.62 -92.67L1708.73 247.68" stroke="hsla(0, 0%, 100%, 0.2)" stroke-width="1.5"></path><path d="M1735.63 105.66L1735.63 105.66" stroke="hsla(0, 0%, 100%, 0.2)" stroke-width="1.5"></path><path d="M1735.63 105.66L1708.73 247.68" stroke="hsla(0, 0%, 100%, 0.2)" stroke-width="1.5"></path><path d="M1708.73 247.68L1708.73 247.68" stroke="hsla(0, 0%, 100%, 0.2)" stroke-width="1.5"></path><path d="M1708.73 247.68L1728.76 355.5" stroke="hsla(0, 0%, 100%, 0.2)" stroke-width="1.5"></path><path d="M1708.73 247.68L1562.41 239.73" stroke="hsla(0, 0%, 100%, 0.2)" stroke-width="1.5"></path><path d="M1728.76 355.5L1728.76 355.5" stroke="hsla(0, 0%, 100%, 0.2)" stroke-width="1.5"></path><path d="M1728.76 355.5L1695.82 531.71" stroke="hsla(0, 0%, 100%, 0.2)" stroke-width="1.5"></path><path d="M1728.76 355.5L1562.41 239.73" stroke="hsla(0, 0%, 100%, 0.2)" stroke-width="1.5"></path><path d="M1728.76 355.5L1735.63 105.66" stroke="hsla(0, 0%, 100%, 0.2)" stroke-width="1.5"></path><path d="M1695.82 531.71L1695.82 531.71" stroke="hsla(0, 0%, 100%, 0.2)" stroke-width="1.5"></path><path d="M1695.82 531.71L1572.12 340.78" stroke="hsla(0, 0%, 100%, 0.2)" stroke-width="1.5"></path><path d="M1695.82 531.71L1442 518.4" stroke="hsla(0, 0%, 100%, 0.2)" stroke-width="1.5"></path><circle r="25" cx="-103.48" cy="701.02" fill="url(&quot;#SvgjsRadialGradient1073&quot;)"></circle><circle r="25" cx="695.71" cy="374.81" fill="url(&quot;#SvgjsRadialGradient1073&quot;)"></circle><circle r="25" cx="791.05" cy="665.06" fill="url(&quot;#SvgjsRadialGradient1073&quot;)"></circle><circle r="25" cx="959.07" cy="650.85" fill="url(&quot;#SvgjsRadialGradient1073&quot;)"></circle><circle r="25" cx="1311.34" cy="105.2" fill="url(&quot;#SvgjsRadialGradient1073&quot;)"></circle><circle r="25" cx="1254.61" cy="209.71" fill="url(&quot;#SvgjsRadialGradient1073&quot;)"></circle><circle r="25" cx="1718.5" cy="674.66" fill="url(&quot;#SvgjsRadialGradient1073&quot;)"></circle><circle r="5" cx="-93.08" cy="491.19" fill="rgba(255, 255, 255, 0.6)"></circle><circle r="5" cx="70.95" cy="492.12" fill="rgba(255, 255, 255, 0.6)"></circle><circle r="5" cx="99.72" cy="699.15" fill="rgba(255, 255, 255, 0.6)"></circle><circle r="5" cx="215.46" cy="542.13" fill="rgba(255, 255, 255, 0.6)"></circle><circle r="5" cx="411.8" cy="386.96" fill="rgba(255, 255, 255, 0.6)"></circle><circle r="5" cx="371.92" cy="552.53" fill="rgba(255, 255, 255, 0.6)"></circle><circle r="5" cx="343.84" cy="650.74" fill="rgba(255, 255, 255, 0.6)"></circle><circle r="5" cx="510.44" cy="409.16" fill="rgba(255, 255, 255, 0.6)"></circle><circle r="5" cx="487.73" cy="509.79" fill="rgba(255, 255, 255, 0.6)"></circle><circle r="5" cx="525.61" cy="676.17" fill="rgba(255, 255, 255, 0.6)"></circle><circle r="5" cx="701.23" cy="497.08" fill="rgba(255, 255, 255, 0.6)"></circle><circle r="5" cx="673.99" cy="696.62" fill="rgba(255, 255, 255, 0.6)"></circle><circle r="5" cx="851.73" cy="382.99" fill="rgba(255, 255, 255, 0.6)"></circle><circle r="5" cx="833.05" cy="549.68" fill="rgba(255, 255, 255, 0.6)"></circle><circle r="5" cx="987.53" cy="531.48" fill="rgba(255, 255, 255, 0.6)"></circle><circle r="5" cx="1118.61" cy="229.12" fill="rgba(255, 255, 255, 0.6)"></circle><circle r="5" cx="1121.79" cy="360.24" fill="rgba(255, 255, 255, 0.6)"></circle><circle r="5" cx="1100.7" cy="537.11" fill="rgba(255, 255, 255, 0.6)"></circle><circle r="5" cx="1093.18" cy="697.91" fill="rgba(255, 255, 255, 0.6)"></circle><circle r="5" cx="1250.02" cy="338.4" fill="rgba(255, 255, 255, 0.6)"></circle><circle r="5" cx="1256.45" cy="552.72" fill="rgba(255, 255, 255, 0.6)"></circle><circle r="5" cx="1254.11" cy="681.11" fill="rgba(255, 255, 255, 0.6)"></circle><circle r="5" cx="1395.84" cy="-47.58" fill="rgba(255, 255, 255, 0.6)"></circle><circle r="5" cx="1401.2" cy="49.8" fill="rgba(255, 255, 255, 0.6)"></circle><circle r="5" cx="1416.42" cy="247.32" fill="rgba(255, 255, 255, 0.6)"></circle><circle r="5" cx="1437.27" cy="341.42" fill="rgba(255, 255, 255, 0.6)"></circle><circle r="5" cx="1442" cy="518.4" fill="rgba(255, 255, 255, 0.6)"></circle><circle r="5" cx="1437.5" cy="687.89" fill="rgba(255, 255, 255, 0.6)"></circle><circle r="5" cx="1547.37" cy="-55.6" fill="rgba(255, 255, 255, 0.6)"></circle><circle r="5" cx="1562.3" cy="89.21" fill="rgba(255, 255, 255, 0.6)"></circle><circle r="5" cx="1562.41" cy="239.73" fill="rgba(255, 255, 255, 0.6)"></circle><circle r="5" cx="1572.12" cy="340.78" fill="rgba(255, 255, 255, 0.6)"></circle><circle r="5" cx="1548.12" cy="550.44" fill="rgba(255, 255, 255, 0.6)"></circle><circle r="5" cx="1610.67" cy="704.44" fill="rgba(255, 255, 255, 0.6)"></circle><circle r="5" cx="1702.62" cy="-92.67" fill="rgba(255, 255, 255, 0.6)"></circle><circle r="5" cx="1735.63" cy="105.66" fill="rgba(255, 255, 255, 0.6)"></circle><circle r="5" cx="1708.73" cy="247.68" fill="rgba(255, 255, 255, 0.6)"></circle><circle r="5" cx="1728.76" cy="355.5" fill="rgba(255, 255, 255, 0.6)"></circle><circle r="5" cx="1695.82" cy="531.71" fill="rgba(255, 255, 255, 0.6)"></circle></g><defs><mask id="SvgjsMask1072"><rect width="1600" height="500" fill="#ffffff"></rect></mask><radialGradient id="SvgjsRadialGradient1073"><stop stop-color="#ffffff" offset="0.1"></stop><stop stop-color="rgba(255, 255, 255, 0.2)" offset="0.2"></stop><stop stop-color="rgba(255, 255, 255, 0)" offset="1"></stop></radialGradient></defs></svg>